<svg width="25" height="21" viewBox="0 0 25 21" fill="none" xmlns="http://www.w3.org/2000/svg">
<path d="M17.59 19.5V17.5C17.59 16.4391 17.1686 15.4217 16.4184 14.6716C15.6683 13.9214 14.6509 13.5 13.59 13.5H5.59C4.52913 13.5 3.51172 13.9214 2.76157 14.6716C2.01143 15.4217 1.59 16.4391 1.59 17.5V19.5M23.59 19.5V17.5C23.5893 16.6137 23.2944 15.7528 22.7514 15.0523C22.2084 14.3519 21.4481 13.8516 20.59 13.63M16.59 1.63C17.4504 1.85031 18.213 2.35071 18.7576 3.05232C19.3022 3.75392 19.5978 4.61683 19.5978 5.505C19.5978 6.39318 19.3022 7.25608 18.7576 7.95769C18.213 8.6593 17.4504 9.1597 16.59 9.38M9.59 9.5C11.7991 9.5 13.59 7.70914 13.59 5.5C13.59 3.29086 11.7991 1.5 9.59 1.5C7.38086 1.5 5.59 3.29086 5.59 5.5C5.59 7.70914 7.38086 9.5 9.59 9.5Z" stroke="#9999AB" stroke-width="2.4" stroke-linecap="round" stroke-linejoin="round"/>
</svg>
